<svg xmlns="http://www.w3.org/2000/svg" viewBox="0 0 360 260">
  <defs>
    <linearGradient id="grass" x1="0" x2="0" y1="0" y2="1"><stop offset="0" stop-color="#1e824e"/><stop offset="1" stop-color="#16653f"/></linearGradient>
    <linearGradient id="dirt" x1="0" x2="0" y1="0" y2="1"><stop offset="0" stop-color="#C18A5A"/><stop offset="1" stop-color="#8A5A36"/></linearGradient>
  </defs>
  <rect width="360" height="260" fill="#0f2740"/>
  <g transform="translate(0,10)">
    <path d="M20 210 Q180 90 340 210" fill="url(#grass)" stroke="#0b3a2a" stroke-width="2"/>
    <path d="M20 210 Q180 120 340 210" fill="none" stroke="#d1b27b" stroke-width="5" opacity=".4"/>
    <text x="40" y="200" font-size="8" fill="#d1d5db">330</text>
    <text x="176" y="130" font-size="8" fill="#d1d5db">400</text>
    <text x="315" y="200" font-size="8" fill="#d1d5db">330</text>
    <path d="M180 210 L20 210" stroke="#eee" stroke-width="1.5" opacity=".6"/>
    <path d="M180 210 L340 210" stroke="#eee" stroke-width="1.5" opacity=".6"/>
    <g transform="translate(180,210)">
      <rect x="-28" y="-28" width="56" height="56" fill="url(#dirt)" transform="rotate(45)"/>
      <rect x="-2" y="-46" width="6" height="6" fill="#fff" transform="rotate(45)"/>
      <rect x="-46" y="-2" width="6" height="6" fill="#fff" transform="rotate(45)"/>
      <rect x="42" y="-2" width="6" height="6" fill="#fff" transform="rotate(45)"/>
      <rect x="-2" y="42" width="6" height="6" fill="#fff" transform="rotate(45)"/>
      <circle cx="0" cy="-16" r="6" fill="#d8cab8" stroke="#916c4f"/>
      <rect x="-10" y="26" width="20" height="6" fill="#e9e9e9" opacity=".5"/>
      <rect x="-30" y="26" width="16" height="6" fill="#e9e9e9" opacity=".5"/>
      <rect x="14" y="26" width="16" height="6" fill="#e9e9e9" opacity=".5"/>
    </g>
  </g>
</svg>